<svg xmlns="http://www.w3.org/2000/svg" xmlns:xlink="http://www.w3.org/1999/xlink" zoomAndPan="magnify" preserveAspectRatio="xMidYMid meet" version="1.0" viewBox="66.53 150.21 254.68 65.32"><defs><g/></defs><path fill="#ffffff" d="M 134.019531 187 C 133.496094 187.808594 132.792969 187.167969 133.242188 186.460938 C 149.859375 160.332031 160.28125 195.777344 193.683594 192.800781 C 245.117188 188.21875 288.113281 173.597656 320.113281 186.1875 C 322.34375 187.066406 320.773438 188.90625 318.890625 188.046875 C 292.257812 175.863281 242.78125 188.621094 193.464844 193.789062 C 160.046875 197.289062 150.597656 161.296875 134.019531 187 Z M 134.019531 187 " fill-opacity="1" fill-rule="nonzero"/><g fill="#ffffff" fill-opacity="1"><g transform="translate(68.625, 200.249987)"><g><path d="M 5.101562 15.121094 C 12.960938 13.441406 13.378906 5.101562 10.378906 -1.800781 C 14.761719 -3.539062 21.601562 -6.839844 26.761719 -14.039062 C 27.058594 -14.460938 26.339844 -14.699219 25.621094 -14.101562 C 21.660156 -8.339844 15.121094 -4.5 10.019531 -2.519531 C 7.558594 -7.558594 5.519531 -10.5 3.421875 -14.460938 C 0.660156 -19.621094 3.359375 -23.398438 7.199219 -24.421875 C 10.679688 -25.320312 13.980469 -20.761719 10.621094 -16.441406 L 11.761719 -16.441406 C 14.820312 -21 11.878906 -25.859375 7.140625 -25.320312 C 1.078125 -24.660156 -2.761719 -19.261719 0.839844 -12 C 2.761719 -8.160156 5.640625 -3.300781 7.019531 -0.839844 C -6.480469 3.71875 -3.121094 16.859375 5.101562 15.121094 Z M 5.519531 14.160156 C -1.800781 16.679688 -5.519531 4.558594 7.320312 -0.121094 C 10.078125 6.480469 8.460938 13.140625 5.519531 14.160156 Z M 5.519531 14.160156 "/></g></g></g><g fill="#ffffff" fill-opacity="1"><g transform="translate(94.184977, 200.249987)"><g><path d="M 23.699219 6.839844 C 29.101562 2.820312 36.78125 -9.78125 40.078125 -14.101562 C 40.078125 -14.398438 39.300781 -14.398438 39.058594 -14.160156 C 36.480469 -10.859375 27.78125 3.121094 22.621094 6.539062 C 20.640625 7.800781 18.898438 8.28125 18.179688 7.378906 C 16.019531 4.558594 19.558594 -11.339844 21.121094 -17.878906 C 40.738281 -39.898438 39.480469 -50.039062 33.421875 -50.039062 C 25.378906 -50.039062 19.320312 -37.199219 16.261719 -15.839844 C 14.578125 -19.859375 12.058594 -23.460938 8.820312 -23.519531 C -1.441406 -23.640625 -3.480469 -1.800781 2.101562 0.121094 C 5.578125 1.320312 10.859375 -4.5 15.660156 -11.28125 C 14.699219 -3.960938 14.160156 2.460938 14.820312 4.980469 C 15.898438 9.058594 18.898438 10.5 23.699219 6.839844 Z M 21.300781 -19.441406 C 23.039062 -35.519531 29.28125 -49.078125 33.179688 -49.078125 C 38.101562 -49.078125 39.300781 -40.921875 21.300781 -19.441406 Z M 8.820312 -22.621094 C 12 -22.859375 14.761719 -17.339844 16.019531 -14.101562 L 15.839844 -12.898438 C 9.179688 -3.421875 4.738281 0.0585938 3.300781 -0.660156 C 0 -2.339844 4.5 -22.261719 8.820312 -22.621094 Z M 8.820312 -22.621094 "/></g></g></g></svg>