<?xml version="1.0" encoding="UTF-8"?>
<svg width="237px" height="33px" viewBox="0 0 237 33" version="1.1" xmlns="http://www.w3.org/2000/svg" xmlns:xlink="http://www.w3.org/1999/xlink">
    <title>Group 14</title>
    <g id="Page-1" stroke="none" stroke-width="1" fill="none" fill-rule="evenodd">
        <g id="Group-14" fill="#FFFFFF" fill-rule="nonzero">
            <g id="Synthesis-Logo-White">
                <polygon id="Triangle" points="9.5 16.5 19 33 0 33"></polygon>
                <polygon id="Triangle" points="9.5 0 19 16.5 0 16.5"></polygon>
                <g id="6453ffa34cfe0ad2d85df976_Logo-+-wordmark-(1)" transform="translate(32, 9)">
                    <path d="M11.1976532,0 C13.377937,0 15.2975347,0.341176471 16.9564464,1.02352941 C18.6390567,1.68235294 20.096529,2.65882353 21.3288633,3.95294118 L18.3783705,7.87058823 C17.3593249,6.81176471 16.2573336,6.02352941 15.0723967,5.50588236 C13.9111587,4.96470588 12.5840294,4.69411764 11.091009,4.69411764 C10.2141557,4.69411764 9.50319354,4.7882353 8.95812259,4.97647059 C8.41305164,5.16470588 8.02202249,5.42352941 7.78503512,5.75294118 C7.54804774,6.08235294 7.42955406,6.45882353 7.42955406,6.88235294 C7.42955406,7.37647059 7.65469206,7.8 8.10496806,8.15294118 C8.57894281,8.48235294 9.33730239,8.76470588 10.3800468,9 L14.3258866,9.8823529 C16.6720615,10.4235294 18.3902199,11.2117647 19.4803618,12.2470588 C20.5705037,13.2823529 21.1155747,14.6588235 21.1155747,16.3764706 C21.1155747,18.0235294 20.6889974,19.4235294 19.8358429,20.5764706 C18.9826884,21.7058823 17.8096009,22.5647059 16.3165805,23.1529412 C14.8235601,23.7176471 13.1172509,24 11.1976532,24 C9.63353661,24 8.14051617,23.8352941 6.71859195,23.5058823 C5.29666773,23.1529412 4.01693592,22.6588236 2.87939655,22.0235294 C1.74185717,21.3882353 0.782058322,20.6588235 0,19.8352941 L2.95049276,15.7764706 C3.54296119,16.4588235 4.26577267,17.0705882 5.1189272,17.6117647 C5.99578047,18.1294117 6.94372995,18.5411765 7.96277565,18.8470588 C9.00552007,19.1529412 10.0601138,19.3058823 11.126557,19.3058823 C11.9560129,19.3058823 12.6432762,19.2235294 13.1883472,19.0588236 C13.7571168,18.8941176 14.1718447,18.6470588 14.4325308,18.3176471 C14.6932169,17.9882353 14.8235601,17.6 14.8235601,17.1529412 C14.8235601,16.6588236 14.6458195,16.2470588 14.2903384,15.9176471 C13.9348574,15.5647059 13.2594434,15.2705882 12.2640964,15.0352941 L7.92722753,14.0823529 C6.60009827,13.7764706 5.41516142,13.3764706 4.37241698,12.8823529 C3.35337129,12.3647059 2.54761423,11.6823529 1.9551458,10.8352941 C1.36267738,9.96470592 1.06644316,8.88235294 1.06644316,7.58823529 C1.06644316,6.12941176 1.46932169,4.83529412 2.27507875,3.70588236 C3.08083582,2.55294118 4.24207393,1.64705882 5.7587931,0.98823529 C7.27551227,0.329411765 9.08846565,0 11.1976532,0 Z M45.4288496,0.352941177 L37.146141,15.1411764 L37.146141,23.6470588 L31.0318668,23.6470588 L31.0318668,15.1411764 L22.7491583,0.352941177 L29.076721,0.352941177 L32.3826949,6.74117647 L34.124552,10.6235294 L35.9019573,6.74117647 L39.2079311,0.352941177 L45.4288496,0.352941177 Z M69.971706,0.352941177 L69.971706,23.6470588 L63.1820179,23.6470588 L55.8946562,11.0470588 L54.1172509,7.58823529 L54.0817028,7.58823529 L54.2238953,11.8941177 L54.2238953,23.6470588 L48.8205832,23.6470588 L48.8205832,0.352941177 L55.6102714,0.352941177 L62.897633,12.9529412 L64.6750383,16.4117647 L64.7105864,16.4117647 L64.568394,12.1058823 L64.568394,0.352941177 L69.971706,0.352941177 Z M95.6094441,0.352941177 L95.6094441,5.04705882 L87.9666014,5.04705882 L87.9666014,23.6470588 L81.8523273,23.6470588 L81.8523273,5.04705882 L74.1739365,5.04705882 L74.1739365,0.352941177 L95.6094441,0.352941177 Z M121.002788,0.352941177 L121.002788,23.6470588 L114.888515,23.6470588 L114.888515,0.352941177 L121.002788,0.352941177 Z M105.9298,0.352941177 L105.9298,23.6470588 L99.815526,23.6470588 L99.815526,0.352941177 L105.9298,0.352941177 Z M118.158941,9.56470588 L118.158941,14.2588236 L102.801567,14.2588236 L102.801567,9.56470588 L118.158941,9.56470588 Z M126.909699,23.6470588 L126.909699,0.352941177 L145.181426,0.352941177 L145.181426,5.04705882 L133.023974,5.04705882 L133.023974,9.77647056 L142.693058,9.77647056 L142.693058,14.1882353 L133.023974,14.1882353 L133.023974,18.9529412 L145.643551,18.9529412 L145.643551,23.6470588 L126.909699,23.6470588 Z M159.218483,0 C161.398768,0 163.318365,0.341176471 164.977276,1.02352941 C166.659887,1.68235294 168.117359,2.65882353 169.349694,3.95294118 L166.399201,7.87058823 C165.380156,6.81176471 164.278164,6.02352941 163.093227,5.50588236 C161.931989,4.96470588 160.60486,4.69411764 159.111839,4.69411764 C158.234986,4.69411764 157.524023,4.7882353 156.978953,4.97647059 C156.433882,5.16470588 156.042853,5.42352941 155.805865,5.75294118 C155.568878,6.08235294 155.450384,6.45882353 155.450384,6.88235294 C155.450384,7.37647059 155.675523,7.8 156.125798,8.15294118 C156.599773,8.48235294 157.358133,8.76470588 158.400877,9 L162.346716,9.8823529 C164.692892,10.4235294 166.41105,11.2117647 167.501192,12.2470588 C168.591334,13.2823529 169.136405,14.6588235 169.136405,16.3764706 C169.136405,18.0235294 168.709828,19.4235294 167.856673,20.5764706 C167.003519,21.7058823 165.830431,22.5647059 164.33741,23.1529412 C162.84439,23.7176471 161.138082,24 159.218483,24 C157.654367,24 156.161346,23.8352941 154.739423,23.5058823 C153.317498,23.1529412 152.037766,22.6588236 150.900227,22.0235294 C149.762688,21.3882353 148.802889,20.6588235 148.020831,19.8352941 L150.971324,15.7764706 C151.563791,16.4588235 152.286603,17.0705882 153.139757,17.6117647 C154.01661,18.1294117 154.96456,18.5411765 155.983606,18.8470588 C157.02635,19.1529412 158.080944,19.3058823 159.147388,19.3058823 C159.976843,19.3058823 160.664107,19.2235294 161.209177,19.0588236 C161.777947,18.8941176 162.192675,18.6470588 162.453361,18.3176471 C162.714047,17.9882353 162.84439,17.6 162.84439,17.1529412 C162.84439,16.6588236 162.666649,16.2470588 162.311169,15.9176471 C161.955688,15.5647059 161.280274,15.2705882 160.284927,15.0352941 L155.948058,14.0823529 C154.620929,13.7764706 153.435991,13.3764706 152.393247,12.8823529 C151.374202,12.3647059 150.568444,11.6823529 149.975977,10.8352941 C149.383508,9.96470592 149.087273,8.88235294 149.087273,7.58823529 C149.087273,6.12941176 149.490152,4.83529412 150.295909,3.70588236 C151.101666,2.55294118 152.262904,1.64705882 153.779623,0.98823529 C155.296343,0.329411765 157.109296,0 159.218483,0 Z M179.783062,0.352941177 L179.783062,23.6470588 L173.668789,23.6470588 L173.668789,0.352941177 L179.783062,0.352941177 Z M194.86879,0 C197.049074,0 198.968671,0.341176471 200.627583,1.02352941 C202.310193,1.68235294 203.767666,2.65882353 205,3.95294118 L202.049507,7.87058823 C201.030462,6.81176471 199.928471,6.02352941 198.743533,5.50588236 C197.582296,4.96470588 196.255166,4.69411764 194.762145,4.69411764 C193.885292,4.69411764 193.174331,4.7882353 192.629259,4.97647059 C192.084188,5.16470588 191.693159,5.42352941 191.456171,5.75294118 C191.219184,6.08235294 191.100691,6.45882353 191.100691,6.88235294 C191.100691,7.37647059 191.325829,7.8 191.776104,8.15294118 C192.250079,8.48235294 193.008439,8.76470588 194.051184,9 L197.997024,9.8823529 C200.343198,10.4235294 202.061357,11.2117647 203.151498,12.2470588 C204.24164,13.2823529 204.786711,14.6588235 204.786711,16.3764706 C204.786711,18.0235294 204.360134,19.4235294 203.506979,20.5764706 C202.653825,21.7058823 201.480737,22.5647059 199.987717,23.1529412 C198.494697,23.7176471 196.788388,24 194.86879,24 C193.304673,24 191.811653,23.8352941 190.389729,23.5058823 C188.967804,23.1529412 187.688072,22.6588236 186.550533,22.0235294 C185.412994,21.3882353 184.453195,20.6588235 183.671137,19.8352941 L186.62163,15.7764706 C187.214097,16.4588235 187.93691,17.0705882 188.790064,17.6117647 C189.666918,18.1294117 190.614866,18.5411765 191.633912,18.8470588 C192.676657,19.1529412 193.731251,19.3058823 194.797694,19.3058823 C195.62715,19.3058823 196.314413,19.2235294 196.859484,19.0588236 C197.428253,18.8941176 197.842982,18.6470588 198.103668,18.3176471 C198.364354,17.9882353 198.494697,17.6 198.494697,17.1529412 C198.494697,16.6588236 198.316957,16.2470588 197.961475,15.9176471 C197.605994,15.5647059 196.93058,15.2705882 195.935233,15.0352941 L191.598364,14.0823529 C190.271235,13.7764706 189.086298,13.3764706 188.043554,12.8823529 C187.024508,12.3647059 186.218751,11.6823529 185.626283,10.8352941 C185.033814,9.96470592 184.73758,8.88235294 184.73758,7.58823529 C184.73758,6.12941176 185.140458,4.83529412 185.946216,3.70588236 C186.751972,2.55294118 187.913211,1.64705882 189.42993,0.98823529 C190.946649,0.329411765 192.759603,0 194.86879,0 Z" id="Shape"></path>
                </g>
            </g>
        </g>
    </g>
</svg>